<svg width="41" height="40" viewBox="0 0 41 40" fill="none" xmlns="http://www.w3.org/2000/svg">
<g clip-path="url(#clip0_12525_441)">
<path d="M16.3368 20.4842C17.2344 20.8091 18.2342 21.287 18.4699 22.309C18.4725 22.3203 18.4749 22.331 18.4775 22.3422C18.5956 22.855 18.5101 23.3941 18.239 23.8455C17.5942 24.9197 16.1013 24.9827 15.0016 25.2368L14.9965 25.235L8.87768 26.6487C8.24949 26.7939 7.61944 26.9537 6.96899 26.9071C6.20433 26.8519 5.57529 26.6266 5.14975 25.9531C4.56868 25.0332 4.54032 23.6763 4.53352 22.6192C4.52438 21.4497 4.71102 20.2869 5.08585 19.1789C5.30522 18.5304 5.75075 17.8769 6.39916 17.6049C7.11047 17.3065 7.97786 17.5387 8.68112 17.7543L16.3368 20.4842Z" fill="#615E5E"/>
<path d="M29.6959 12.9047C30.2013 12.4347 30.5815 12.1541 30.9327 11.9795C31.8301 11.5001 32.8964 11.9459 33.5502 12.608C34.3714 13.4396 35.0474 14.4031 35.5503 15.4585C36.0062 16.412 36.5728 17.6446 36.4507 18.7299C36.3875 19.4938 35.866 20.0176 35.2317 20.3857C34.6678 20.713 34.0311 20.8458 33.4036 20.9909L25.4402 22.8307C24.3411 23.0988 23.1488 22.4648 22.8921 21.3277C22.8896 21.3164 22.887 21.3058 22.8845 21.2945C22.669 20.2836 23.3463 19.4012 24.0051 18.7181L29.6959 12.9047Z" fill="#615E5E"/>
<path d="M21.2975 18.8072C21.8746 18.0822 21.8731 17.0017 21.9248 16.1183C22.0984 13.1668 22.2813 10.2148 22.4263 7.26157C22.4816 6.14302 22.6021 5.03954 22.5355 3.91247C22.4808 2.98265 22.474 1.91511 21.8869 1.15209C20.8507 -0.193491 18.6411 -0.0829476 17.1334 0.125796C16.6716 0.189934 16.2089 0.276103 15.75 0.386256C15.2911 0.496408 14.8369 0.616795 14.3924 0.759056C12.9458 1.23295 10.9119 2.10276 10.5676 3.76974C10.3734 4.71213 10.8335 5.67608 11.1903 6.53613C11.623 7.5786 12.2138 8.5177 12.7524 9.49908C14.1763 12.0898 15.6265 14.6644 17.0727 17.2417C17.7108 18.3789 18.5836 19.8914 20.1533 19.5266C20.5964 19.4236 21.0014 19.1492 21.2975 18.8072Z" fill="#615E5E"/>
<path d="M17.0735 27.235C17.328 26.9147 17.6075 26.5951 17.9394 26.3493C18.4445 25.9696 19.0847 25.8257 19.6932 26.0307C20.2772 26.2274 20.732 26.7848 20.8991 27.3846C21.0382 27.8838 21.0536 28.4392 21.0347 28.9405C20.9314 31.6812 20.9129 34.4346 20.6614 37.1669C20.593 37.9103 20.4815 38.8108 19.9284 39.3649C19.4156 39.8681 18.6313 40.0334 17.9526 39.9946C17.0613 39.9436 16.1807 39.7752 15.3334 39.494C14.3153 39.1525 13.3475 38.7106 12.4634 38.0955C11.8909 37.6973 11.3901 37.0891 11.2994 36.3796C11.1842 35.478 11.7913 34.6346 12.2598 33.9216L17.0735 27.235Z" fill="#615E5E"/>
<path d="M35.069 30.1113C34.7228 29.7224 34.25 29.428 33.8208 29.1684C31.3899 27.6979 28.8519 26.338 26.2925 25.1054C25.3863 24.6688 24.2295 24.3656 23.4134 25.1736C22.5073 26.0707 22.9594 27.4066 23.4749 28.3737C24.7129 30.6939 25.872 33.0757 27.2358 35.3253C27.5604 35.8629 27.8842 36.4205 28.3525 36.8485C28.8794 37.3301 29.5845 37.4345 30.2619 37.2787C31.3681 37.0243 32.4208 36.1321 33.2121 35.3582C33.9781 34.6044 34.6552 33.7825 35.1819 32.8414C35.6583 31.9903 35.7519 30.8782 35.069 30.1113Z" fill="#FFEB9C"/>
</g>
<defs>
<clipPath id="clip0_12525_441">
<rect width="40" height="40" fill="white" transform="translate(0.5)"/>
</clipPath>
</defs>
</svg>
